<?xml version="1.0" encoding="utf-8"?>
<!-- Generator: Adobe Illustrator 22.0.1, SVG Export Plug-In . SVG Version: 6.00 Build 0)  -->
<svg version="1.1"
	 id="svg9072" inkscape:version="0.47 r22583" sodipodi:docname="New document 6" xmlns:cc="http://creativecommons.org/ns#" xmlns:dc="http://purl.org/dc/elements/1.1/" xmlns:inkscape="http://www.inkscape.org/namespaces/inkscape" xmlns:ns1="http://sozi.baierouge.fr" xmlns:rdf="http://www.w3.org/1999/02/22-rdf-syntax-ns#" xmlns:sodipodi="http://sodipodi.sourceforge.net/DTD/sodipodi-0.dtd" xmlns:svg="http://www.w3.org/2000/svg"
	 xmlns="http://www.w3.org/2000/svg" xmlns:xlink="http://www.w3.org/1999/xlink" x="0px" y="0px" viewBox="0 0 110.4 101.6"
	 style="enable-background:new 0 0 110.4 101.6;" xml:space="preserve">
<style type="text/css">
	.st0{fill:#FFAAAA;stroke:#FF6666;stroke-width:2;}
	.st1{fill:#FFFFFF;stroke:#FF6666;stroke-width:2;}
	.st2{fill:#FFFFFF;stroke:#FF6666;stroke-width:5;stroke-linecap:round;}
	.st3{fill:#FFFFFF;stroke:#FF6666;}
	.st4{fill:#FF6666;stroke:#FFFFFF;stroke-width:1.2;}
	.st5{fill:#FFFFFF;}
	.st6{fill:none;stroke:#FF6666;stroke-width:2;}
</style>
<sodipodi:namedview  bordercolor="#666666" borderopacity="1.0" id="base" inkscape:current-layer="layer1" inkscape:cx="55.2085" inkscape:cy="50.816384" inkscape:document-units="px" inkscape:pageopacity="0.0" inkscape:pageshadow="2" inkscape:window-height="466" inkscape:window-maximized="0" inkscape:window-width="605" inkscape:window-x="515" inkscape:window-y="374" inkscape:zoom="0.35" pagecolor="#ffffff" showgrid="false">
	</sodipodi:namedview>
<g id="layer1" transform="translate(-319.79 -481.55)" inkscape:groupmode="layer" inkscape:label="Layer 1">
	<g id="g13238" transform="translate(-7059 -147.3)">
		<path id="path13240" class="st0" d="M7415.9,661.8C7417,696.5,7437.5,654.7,7415.9,661.8z"/>
		<path id="path13242" sodipodi:nodetypes="cssssc" class="st0" d="M7422.1,694.8c0.9,9.3,1.3,18.9-0.4,28.1
			c-0.1,0.7-1.8,0.4-1.5,1.6c0.5,2,3.1,3,4.9,3.2c3.1,0.4,8.8,1.4,10.8-1.9c3.1-5.3-0.2-27.4,1.7-32.3"/>
		<path id="path13244" sodipodi:nodetypes="cssssc" class="st0" d="M7436.5,695.4c0,9.3-0.6,18.9-3.1,27.9c-0.2,0.7-1.8,0.2-1.6,1.4
			c0.3,2.1,2.7,3.3,4.6,3.7c3,0.7,8.7,2.3,10.9-0.8c3.6-5,2.5-27.3,4.9-32"/>
		<path id="path13246" class="st1" d="M7418.6,685.6c-14,20.1,26.4,24.4,33.6,10.5c2-3.8,0.5-8.9,0.3-12.9"/>
		<g id="g13248" transform="translate(120,10)">
			<path id="path13250" class="st0" d="M7310.4,625.1c-2.9-15.6-23,8.4-6.6,7.4l1.2-0.5C7307.5,628.6,7310.7,628.2,7310.4,625.1z"/>
			<path id="path13252" class="st1" d="M7301.4,627.3c-0.3-2.2,2.6-3.4,3-3.7"/>
		</g>
		<path id="path13254" sodipodi:nodetypes="cssssc" class="st1" d="M7425.9,638.5c-4.8,12.5-8.8,8.6-7.2,16.3
			c1.2,5.9,10.4,10.3,15.4,12.7c24.7,11.8,27.7-16.2,19.4-27c-2.6-3.4-11.3-5.5-15.3-6.8C7432.1,631.6,7429.3,633.4,7425.9,638.5
			L7425.9,638.5z"/>
		<path id="path13256" class="st0" d="M7446.3,659.3c-3.4-1-4.2-4.4-3.6-7.7c0.4-2,1.3-4.1,3.5-4.7c13.3-3.8,4.9,24.1-2,10.3"/>
		<path id="path13258" sodipodi:nodetypes="csc" class="st0" d="M7426.6,644.3c-1.5,1.6-0.7,6.3,2,7.7
			C7434.8,655.2,7437.4,636.5,7426.6,644.3z"/>
		<path id="path13260" class="st0" d="M7434.8,658.9C7432.8,653.1,7440.4,657.7,7434.8,658.9z"/>
		<path id="path13262" class="st1" d="M7441.2,661.1c-1,1.6-2.9,1.6-3.9,1.7"/>
		<path id="path13264" class="st0" d="M7456,643.7c14-13.7,16.2,24.4,2.6,12.6C7457.8,655.6,7456.6,647,7456,643.7z"/>
		<path id="path13266" class="st1" d="M7399.1,653.7c3.3,13.1-5.1,24.2,10.4,22.7c2.1-0.2,9.1,0.8,10.6-0.9c0.5-0.6-1.1-5.4-1.2-6.1
			c-0.6-3.8,0.7-18.8-1.9-21.2C7416.6,647.7,7401.4,652.1,7399.1,653.7L7399.1,653.7z"/>
		<path id="path13268" class="st2" d="M7411.8,664.2c3.9,7.4,10,20.1,11.1,25.2"/>
		<path id="path13270" sodipodi:nodetypes="ccsc" class="st0" d="M7398.4,674.7c1.4-3.4,3-9.9-0.5-6.2c-9.9,7.9,1.7,18,10.6,10.8
			C7415.7,673.7,7400,673.9,7398.4,674.7L7398.4,674.7z"/>
		<path id="path13272" sodipodi:nodetypes="cssccccz" class="st0" d="M7445.7,688.6c8.5-1.1,20.2-16.7,8.4-24.3
			c-1.2-0.8-2.8-1-3.9,0.2c-2.9,3.1-1.8,9.7-5.8,12.2l-0.5,0.8c-2.5,4.3-11.7-0.6-14-0.4c-9.4-0.2-15.2,4.5-9.8,8.4
			C7426.7,687.5,7437.2,689.7,7445.7,688.6L7445.7,688.6z"/>
		
			<rect id="rect13274" x="7402.3" y="655.6" transform="matrix(0.9974 -7.238526e-02 7.238526e-02 0.9974 -28.1268 537.6295)" class="st3" width="2.5" height="2.5"/>
		
			<rect id="rect13276" x="7402.3" y="661.9" transform="matrix(0.9974 -7.238526e-02 7.238526e-02 0.9974 -28.5835 537.6501)" class="st3" width="2.5" height="2.5"/>
		
			<rect id="rect13278" x="7402.3" y="668.2" transform="matrix(0.9974 -7.238526e-02 7.238526e-02 0.9974 -29.0411 537.6636)" class="st3" width="2.5" height="2.5"/>
		<path id="path13280" class="st1" d="M7408.2,655.8c2.5,0.6,4.8,0.4,7.1,0.2"/>
		<path id="path13282" class="st1" d="M7408.4,662.3c3,0.1,5.1-0.2,7.8,0.9"/>
		<path id="path13284" class="st1" d="M7408.4,668.4c3,0.3,5.1-0.2,8.4,0.2"/>
		<g id="g13286" transform="translate(120,10)">
			<path id="path13288" class="st4" d="M7327.4,650.6c1.1-0.1,1.9-1,2.4-2.1c0.9-1.7,0.9-4.1,0.4-6c-2.2-7.8-11.2,6.8-2.9,8"/>
			<path id="path13290" class="st5" d="M7327.7,643.6c2.1,1.1-1.3,3-0.7,0.6c0.1-0.5,0.3-0.5,0.7-0.5"/>
		</g>
		<path id="path13292" class="st1" d="M7445.3,641c2.1-0.2,3,1,4.3,2.3"/>
		<path id="path13294" class="st1" d="M7432.2,636.8c2.2-1.2,2.6,0.3,3.6,1"/>
		<path id="path13296" class="st6" d="M7460.4,643.9c5.1,2.4,3.1,9.1,2.5,10.8"/>
		<path id="path13298" class="st6" d="M7446.3,659.3c-3.4-1-4.2-4.4-3.6-7.7c0.4-2,1.3-4.1,3.5-4.7c13.3-3.8,4.9,24.1-2,10.3"/>
		<path id="path13300" sodipodi:nodetypes="cscc" class="st4" d="M7429.8,652.3c0.7,0.3,1.4-0.1,2-0.6c1-0.8,1.7-2.3,1.8-3.6
			c-2.4-6-9.9,0.9-5,3.8"/>
		<path id="path13302" class="st5" d="M7431.6,648c1.9,2.3-2.9,2.8-1.1,0.4c0.4-0.5,0.6-0.4,1-0.2"/>
		<path id="path13304" class="st6" d="M7450.4,722.6c13.5,0.8,25-1.7,37.8,2"/>
		<path id="path13306" class="st6" d="M7421.2,721.9c-13.1,3.1-31.5,0.2-41.4,2.5"/>
		<path id="path13308" sodipodi:nodetypes="csc" class="st6" d="M7426.6,644.3c-1.5,1.6-0.7,6.3,2,7.7
			C7434.8,655.2,7437.4,636.5,7426.6,644.3z"/>
	</g>
</g>
</svg>
